# generated from PmQm by Jehee Lee
:FULLY-SPECIFIED
:DEGREES
162
root 16.8091 39.4543 2.81953 -52.1063 87.0654 -46.0059
RightUpLeg 11.3252 0.294136 -0.30136
RightLeg 2.99175 8.62293 -1.41293
RightFoot -6.55647 -0.431585 7.55069
RightToes 4.07452e-010 -1.59028e-015 9.93923e-017
Spine -13.9168 -4.28711 -9.50599
Spine1 2.63513 -5.37133 10.6934
HEad 15.7818 -7.77584 15.0865
LeftShoulder1 9.93923e-017 -0 1.22299e-017
LeftArm -40.2686 -37.086 29.3751
LeftForeArm -29.701 2.57276 8.46366
LeftHand 0.631429 5.55562 10.3176
RightShoulder 1.98785e-016 -4.96962e-017 1.55301e-017
RightArm -27.9582 34.8051 -21.8995
RightForeArm -18.6633 2.75282 -10.6694
RightHand 3.3622 -17.7048 -16.5724
LeftUpLeg 8.09438 -0.803611 -0.360715
LeftLeg 10.767 -0.382198 4.49071
LeftFoot -11.0642 0.0158286 -2.3487
LeftToes 1.53707e-010 -1.11459e-010 1.58109e-011
163
root 16.7907 39.445 2.70878 -53.5154 87.2067 -47.4205
RightUpLeg 11.1113 0.298571 -0.512533
RightLeg 3.35676 8.50589 -1.45979
RightFoot -6.6364 -0.435538 7.71364
RightToes 4.07452e-010 -1.59028e-015 9.93923e-017
Spine -14.5047 -4.46371 -9.60992
Spine1 4.00642 -5.68514 10.8279
HEad 16.6498 -6.77646 13.6853
LeftShoulder1 9.93923e-017 -0 1.22299e-017
LeftArm -36.5906 -32.5476 26.5816
LeftForeArm -30.2998 2.45388 8.11068
LeftHand 0.746236 5.95121 8.29331
RightShoulder 1.98785e-016 -4.96962e-017 1.55301e-017
RightArm -25.5939 31.535 -20.4825
RightForeArm -20.5374 2.75957 -10.3357
RightHand 3.25905 -17.6885 -15.6368
LeftUpLeg 7.97941 -0.788858 -0.545183
LeftLeg 10.9284 -0.457272 4.40852
LeftFoot -11.0812 0.01093920002 -2.12836
LeftToes 1.53707e-010 -1.11459e-010 1.58109e-011
164
root 16.7786 39.4365 2.59445 -54.6915 87.3271 -48.6133
RightUpLeg 10.8618 0.411524 -0.678285
RightLeg 3.767 8.29662 -1.55039
RightFoot -6.67502 -0.445689 7.93988
RightToes 4.07452e-010 -1.59028e-015 9.93923e-017
Spine -15.0498 -4.61321 -9.41511
Spine1 5.27096 -5.92066 10.5063
HEad 17.371 -5.87926 12.3028
LeftShoulder1 9.93923e-017 -0 1.22299e-017
LeftArm -33.5438 -28.0168 24.1525
LeftForeArm -30.8375 2.38317 7.90989
LeftHand 0.83601 6.28069 6.03206
RightShoulder 1.98785e-016 -4.96962e-017 1.55301e-017
RightArm -23.7695 28.1399 -18.8229
RightForeArm -21.9113 2.5873 -10.157
RightHand 3.07264 -17.4448 -14.3968
LeftUpLeg 7.89935 -0.798005 -0.784689
LeftLeg 11.0056 -0.492707 4.40753
LeftFoot -11.0524 0.007683050006 -1.94002
LeftToes 1.53707e-010 -1.11459e-010 1.58109e-011
165
root 16.7558 39.4278 2.47745 -54.5402 87.3971 -48.4943
RightUpLeg 10.5168 0.595205 -0.846232
RightLeg 4.26629 8.13644 -1.65114
RightFoot -6.67225 -0.460082 8.1919
RightToes 4.07452e-010 -1.59028e-015 9.93923e-017
Spine -15.2255 -4.61497 -9.17039
Spine1 5.98128 -5.98089 10.2099
HEad 18.1481 -5.18143 10.7985
LeftShoulder1 9.93923e-017 -0 1.22299e-017
LeftArm -31.3659 -23.3818 21.5805
LeftForeArm -30.7171 2.40368 7.91129
LeftHand 0.88025 6.453 4.33468
RightShoulder 1.98785e-016 -4.96962e-017 1.55301e-017
RightArm -22.3582 24.7708 -17.1218
RightForeArm -22.7445 2.27585 -10.0566
RightHand 2.89467 -17.0444 -13.529
LeftUpLeg 7.79038 -0.992114 -1.13981
LeftLeg 11.0929 -0.281862 4.53772
LeftFoot -11.0091 0.006013350003 -1.81939
LeftToes 1.53707e-010 -1.11459e-010 1.58109e-011
166
root 16.7178 39.4185 2.35939 -53.5435 87.4374 -47.5031
RightUpLeg 10.1396 0.795432 -1.04994
RightLeg 4.83209 8.07974 -1.71911
RightFoot -6.68615 -0.471716 8.41635
RightToes 4.07452e-010 -1.59028e-015 9.93923e-017
Spine -15.108 -4.57933 -9.27613
Spine1 6.34861 -6.06266 10.497
HEad 19.0387 -4.23641 9.08516
LeftShoulder1 9.93923e-017 -0 1.22299e-017
LeftArm -29.497 -18.073 18.9534
LeftForeArm -30.7454 2.30858 7.96954
LeftHand 0.909391 6.59117 3.42269
RightShoulder 1.98785e-016 -4.96962e-017 1.55301e-017
RightArm -20.7296 21.6123 -15.5278
RightForeArm -23.5123 2.25654 -9.86005
RightHand 2.83517 -16.8443 -13.3691
LeftUpLeg 7.64995 -1.21603 -1.48315
LeftLeg 11.2797 0.000577587 4.63876
LeftFoot -10.9832 0.003408060001 -1.67374
LeftToes 1.53707e-010 -1.11459e-010 1.58109e-011
167
root 16.6705 39.4082 2.24298 -53.2814 87.4882 -47.2262
RightUpLeg 9.7814 1.03991 -1.23803
RightLeg 5.40595 7.98156 -1.76042
RightFoot -6.74201 -0.481144 8.659
RightToes 4.07452e-010 -1.59028e-015 9.93923e-017
Spine -15.0646 -4.62175 -9.57255
Spine1 6.96288 -6.27415 10.9897
HEad 19.7305 -2.81571 7.39285
LeftShoulder1 9.93923e-017 -0 1.22299e-017
LeftArm -27.5613 -12.0731 16.7148
LeftForeArm -31.6909 1.15076 8.21802
LeftHand 0.945038 6.79239 3.08123
RightShoulder 1.98785e-016 -4.96962e-017 1.55301e-017
RightArm -18.8072 18.3038 -14.0106
RightForeArm -23.954 3.03016 -9.7727
RightHand 2.82197 -16.8439 -13.2337
LeftUpLeg 7.4687 -1.2577 -1.68062
LeftLeg 11.5603 0.0847703 4.57817
LeftFoot -10.9887 -0.00249462 -1.39885
LeftToes 1.53707e-010 -1.11459e-010 1.58109e-011
168
root 16.6133 39.3906 2.13179 -53.3254 87.567 -47.2928
RightUpLeg 9.32964 1.44256 -1.38742
RightLeg 6.09227 7.65564 -1.79724
RightFoot -6.89501 -0.487365 8.9871
RightToes 4.07452e-010 -1.59028e-015 9.93923e-017
Spine -15.1753 -4.63917 -9.64004
Spine1 7.9523 -6.42329 10.9565
HEad 19.8726 -1.46331 5.99244
LeftShoulder1 9.93923e-017 -0 1.22299e-017
LeftArm -26.0382 -6.04784 14.8646
LeftForeArm -32.9935 -1.54933 8.91699
LeftHand 0.981727 7.00951 3.05711
RightShoulder 1.98785e-016 -4.96962e-017 1.55301e-017
RightArm -17.2073 14.1626 -12.6353
RightForeArm -23.5452 4.91077 -10.3522
RightHand 2.72758 -16.7142 -12.5388
LeftUpLeg 7.19425 -1.18952 -1.8351
LeftLeg 11.9055 0.0482502 4.47794
LeftFoot -11.0599 -0.01020180001 -1.0751
LeftToes 1.53707e-010 -1.11459e-010 1.58109e-011
169
root 16.5419 39.3561 2.03155 -51.0072 87.6791 -45.0442
RightUpLeg 8.61451 2.15091 -1.58604
RightLeg 7.17539 7.01671 -1.80261
RightFoot -7.28115 -0.473994 9.32001
RightToes 4.07452e-010 -1.59028e-015 9.93923e-017
Spine -15.144 -4.53348 -9.57086
Spine1 8.89754 -6.38027 10.4577
HEad 19.5481 -0.642349 4.78704
LeftShoulder1 9.93923e-017 -0 1.22299e-017
LeftArm -25.5063 -0.242134 13.0988
LeftForeArm -33.9192 -4.47398 9.83094
LeftHand 1.00494 7.14627 3.09041
RightShoulder 1.98785e-016 -4.96962e-017 1.55301e-017
RightArm -16.1798 9.10684 -11.4408
RightForeArm -23.0408 7.96207 -11.8529
RightHand 2.61261 -16.5016 -11.7898
LeftUpLeg 6.82228 -1.18989 -2.14668
LeftLeg 12.3215 0.108434 4.51046
LeftFoot -11.2393 -0.0160424 -0.886874
LeftToes 1.53707e-010 -1.11459e-010 1.58109e-011
